<svg width="1440" height="100" viewBox="0 0 1440 100" fill="none" xmlns="http://www.w3.org/2000/svg">
<path opacity="0.7" fill-rule="evenodd" clip-rule="evenodd" d="M1440 97.7187L1433 81.3904C1425 65.0621 1411 32.6567 1396 19.8453C1382 7.28505 1367 14.57 1353 21.6037C1338 28.8886 1324 36.1736 1309 48.7338C1295 61.5452 1280 79.6319 1265 72.347C1251 65.0621 1236 32.6567 1222 18.0868C1207 3.51697 1193 7.28504 1178 21.6037C1164 36.1735 1149 61.5452 1135 65.0621C1120 68.8301 1105 50.7434 1091 45.2169C1076 39.6904 1062 46.9753 1047 46.9753C1033 46.9753 1018 39.6904 1004 48.7338C989 57.7771 975 83.1488 960 77.8735C945 72.347 931 36.1735 916 32.6567C902 28.8886 887 57.7771 873 59.7867C858 61.5452 844 36.1735 829 21.6037C815 7.285 800 3.51693 785 12.5603C771 21.6036 756 43.4584 742 52.5018C727 61.5452 713 57.7771 698 52.5018C684 46.9753 669 39.6904 655 36.1735C640 32.6566 625 32.6566 611 41.7C596 50.7434 582 68.8301 567 74.1054C553 79.6319 538 72.3469 524 68.8301C509 65.062 495 65.062 480 61.5451C465 57.7771 451 50.7433 436 41.7C422 32.6566 407 21.6036 393 32.6566C378 43.4584 364 75.8638 349 90.4336C335 105.003 320 101.235 305 90.4336C291 79.6318 276 61.5451 262 63.3035C247 65.062 233 86.9168 218 84.9071C204 83.1487 189 57.777 175 43.4584C160 28.8885 145 25.3717 131 23.6132C116 21.6036 102 21.6036 87 34.415C73 46.9752 58 72.3469 44 75.8638C29 79.6318 15 61.5451 7 52.5017L4.94302e-06 43.4584L8.74227e-06 -3.81849e-06L7.00001 -3.20653e-06C15 -2.50714e-06 29 -1.28323e-06 44 2.81164e-08C58 1.25204e-06 73 2.56338e-06 87 3.7873e-06C102 5.09864e-06 116 6.32256e-06 131 7.6339e-06C145 8.85782e-06 160 1.01692e-05 175 1.14805e-05C189 1.27044e-05 204 1.40158e-05 218 1.52397e-05C233 1.6551e-05 247 1.77749e-05 262 1.90863e-05C276 2.03102e-05 291 2.16215e-05 305 2.28455e-05C320 2.41568e-05 335 2.54681e-05 349 2.66921e-05C364 2.80034e-05 378 2.92273e-05 393 3.05387e-05C407 3.17626e-05 422 3.30739e-05 436 3.42978e-05C451 3.56092e-05 465 3.68331e-05 480 3.81444e-05C495 3.94558e-05 509 4.06797e-05 524 4.1991e-05C538 4.3215e-05 553 4.45263e-05 567 4.57502e-05C582 4.70616e-05 596 4.82855e-05 611 4.95968e-05C625 5.08207e-05 640 5.21321e-05 655 5.34434e-05C669 5.46674e-05 684 5.59787e-05 698 5.72026e-05C713 5.8514e-05 727 5.97379e-05 742 6.10492e-05C756 6.22731e-05 771 6.35845e-05 785 6.48084e-05C800 6.61197e-05 815 6.74311e-05 829 6.8655e-05C844 6.99663e-05 858 7.11903e-05 873 7.25016e-05C887 7.37255e-05 902 7.50369e-05 916 7.62608e-05C931 7.75721e-05 945 7.8796e-05 960 8.01074e-05C975 8.14187e-05 989 8.26426e-05 1004 8.3954e-05C1018 8.51779e-05 1033 8.64892e-05 1047 8.77132e-05C1062 8.90245e-05 1076 9.02484e-05 1091 9.15598e-05C1105 9.27837e-05 1120 9.4095e-05 1135 9.54064e-05C1149 9.66303e-05 1164 9.79416e-05 1178 9.91655e-05C1193 0.000100477 1207 0.000101701 1222 0.000103012C1236 0.000104236 1251 0.000105547 1265 0.000106771C1280 0.000108083 1295 0.000109394 1309 0.000110618C1324 0.000111929 1338 0.000113153 1353 0.000114465C1367 0.000115688 1382 0.000117 1396 0.000118224C1411 0.000119535 1425 0.000120759 1433 0.000121458L1440 0.00012207L1440 97.7187Z" fill="#5FC9F3"/>
</svg>
