<svg width="34" height="40" viewBox="0 0 34 40" fill="none" xmlns="http://www.w3.org/2000/svg">
<path d="M4.00016 0.666668C1.96516 0.666668 0.333496 2.29833 0.333496 4.33333V33.6667C0.333496 34.6391 0.719804 35.5718 1.40744 36.2594C2.09507 36.947 3.0277 37.3333 4.00016 37.3333H11.3335V33.8317L15.1652 30H4.00016V26.3333H18.8318L22.4985 22.6667H4.00016V19H26.1652L29.6668 15.4983V11.6667L18.6668 0.666668H4.00016ZM16.8335 3.41667L26.9168 13.5H16.8335V3.41667ZM29.9418 20.8333C29.8061 20.8304 29.6713 20.8548 29.5452 20.9052C29.4192 20.9556 29.3047 21.0309 29.2085 21.1267L27.3385 22.9967L31.1702 26.81L33.0402 24.9583C33.4252 24.555 33.4252 23.895 33.0402 23.51L30.6568 21.1267C30.5632 21.0327 30.4517 20.9583 30.3289 20.9079C30.2061 20.8576 30.0745 20.8322 29.9418 20.8333ZM26.2568 24.0783L15.0002 35.3533V39.1667H18.8135L30.0885 27.8917L26.2568 24.0783Z" fill="white"/>
</svg>
