<svg width="60" height="42" viewBox="0 0 60 42" fill="none" xmlns="http://www.w3.org/2000/svg">
<path d="M58.5521 34.4892C56.3125 34.2361 54.1667 33.3818 52.5208 32.074C51.0521 30.9033 48.9583 30.8822 47.5 32.074C43.5521 35.2803 36.3333 35.2803 32.3229 31.9158C30.9167 30.7345 28.8854 30.956 27.4583 32.1056C23.5 35.2803 16.3229 35.2697 12.3333 31.9263C10.9271 30.7451 8.86458 30.9877 7.42708 32.1373C5.8125 33.424 3.67708 34.2572 1.41667 34.4998C0.59375 34.5842 0 35.3224 0 36.1556V39.5517C0 40.5115 0.791667 41.3236 1.73958 41.2392C4.73958 40.9756 7.58333 40.0369 10.0104 38.5076C15.8958 42.1568 24.2812 42.1041 30.0104 38.5076C35.8958 42.1568 44.2812 42.1041 50.0104 38.5076C52.4375 40.0053 55.3125 40.965 58.25 41.2287C59.1979 41.3131 59.9896 40.501 59.9896 39.5412V36.2084C60 35.3646 59.3958 34.5842 58.5521 34.4892ZM58.5521 19.3017C56.3125 19.0486 54.1667 18.1943 52.5208 16.8865C51.0521 15.7158 48.9583 15.6947 47.5 16.8865C43.5521 20.0928 36.3333 20.0928 32.3229 16.7283C30.9167 15.547 28.8854 15.7685 27.4583 16.9181C23.5 20.0928 16.3229 20.0822 12.3333 16.7388C10.9271 15.5576 8.86458 15.8002 7.42708 16.9498C5.8125 18.2365 3.67708 19.0697 1.41667 19.3123C0.59375 19.3967 0 20.1349 0 20.9681V24.3642C0 25.324 0.791667 26.1361 1.73958 26.0517C4.73958 25.7881 7.58333 24.8494 10.0104 23.3201C15.8958 26.9693 24.2812 26.9166 30.0104 23.3201C35.8958 26.9693 44.2812 26.9166 50.0104 23.3201C52.4375 24.8178 55.3125 25.7775 58.25 26.0412C59.1979 26.1256 59.9896 25.3135 59.9896 24.3537V21.0209C60 20.1771 59.3958 19.3967 58.5521 19.3017ZM58.5521 4.11424C56.3125 3.85056 54.1667 3.00681 52.5208 1.699C51.0521 0.528298 48.9583 0.507204 47.5 1.699C43.5521 4.90525 36.3333 4.90525 32.3229 1.5408C30.9167 0.359548 28.8854 0.581033 27.4583 1.73064C23.5 4.90525 16.3229 4.8947 12.3333 1.55134C10.9271 0.370095 8.86458 0.612673 7.42708 1.76228C5.8125 3.049 3.67708 3.8822 1.41667 4.12478C0.59375 4.20916 0 4.94744 0 5.78064V9.17673C0 10.1365 0.791667 10.9486 1.73958 10.8642C4.73958 10.6006 7.58333 9.66189 10.0104 8.1326C15.8958 11.7818 24.2812 11.7291 30.0104 8.1326C35.8958 11.7818 44.2812 11.7291 50.0104 8.1326C52.4375 9.63025 55.3125 10.59 58.25 10.8537C59.1979 10.9381 59.9896 10.126 59.9896 9.16619V5.83338C60 4.98963 59.3958 4.20916 58.5521 4.11424Z" fill="url(#paint0_linear_47_65)"/>
<defs>
<linearGradient id="paint0_linear_47_65" x1="29.9949" y1="0.754883" x2="29.9949" y2="41.2453" gradientUnits="userSpaceOnUse">
<stop stop-color="#5FC9F3"/>
<stop offset="1" stop-color="#55ABF5"/>
</linearGradient>
</defs>
</svg>
