<svg width="54" height="54" viewBox="0 0 54 54" fill="none" xmlns="http://www.w3.org/2000/svg">
<path d="M51.4212 0.000244141H30.7962C29.38 0.000244141 27.3965 0.821806 26.3962 1.82212L0.824639 27.3937C0.342469 27.8781 0.0717773 28.5338 0.0717773 29.2173C0.0717773 29.9008 0.342469 30.5564 0.824639 31.0409L22.9587 53.1749C23.4431 53.6571 24.0988 53.9278 24.7823 53.9278C25.4658 53.9278 26.1215 53.6571 26.6059 53.1749L52.1775 27.6034C53.1812 26.5996 53.9993 24.6196 53.9993 23.2034V2.57837C53.9966 1.89544 53.7241 1.24126 53.2412 0.758359C52.7583 0.275455 52.1041 0.00295958 51.4212 0.000244141V0.000244141ZM38.5306 20.6252C37.8532 20.625 37.1825 20.4914 36.5568 20.232C35.9311 19.9725 35.3626 19.5924 34.8838 19.1133C34.405 18.6342 34.0253 18.0654 33.7663 17.4396C33.5073 16.8137 33.3741 16.1429 33.3743 15.4656C33.3745 14.7882 33.5082 14.1175 33.7676 13.4918C34.027 12.8661 34.4072 12.2976 34.8863 11.8188C35.3654 11.34 35.9341 10.9603 36.56 10.7013C37.1859 10.4423 37.8567 10.3091 38.534 10.3093C39.902 10.3098 41.2138 10.8536 42.1807 11.8213C43.1477 12.7889 43.6907 14.101 43.6903 15.469C43.6898 16.837 43.1459 18.1487 42.1783 19.1157C41.2107 20.0827 39.8986 20.6257 38.5306 20.6252Z" fill="url(#paint0_linear_47_27)"/>
<defs>
<linearGradient id="paint0_linear_47_27" x1="27.0356" y1="0.000244141" x2="27.0356" y2="53.9278" gradientUnits="userSpaceOnUse">
<stop stop-color="#5FC9F3"/>
<stop offset="1" stop-color="#55ABF5"/>
</linearGradient>
</defs>
</svg>
