<svg width="76" height="53" viewBox="0 0 76 53" fill="none" xmlns="http://www.w3.org/2000/svg">
<path d="M74.1 45H72.2C69.1077 45 66.7612 44.0133 65.5393 42.9023C64.4824 41.9402 63.2047 41.25 61.7666 41.25H59.831C58.3929 41.25 57.1152 41.9402 56.0583 42.9023C54.8387 44.0133 52.4922 45 49.4 45C46.3078 45 43.9613 44.0133 42.7393 42.9023C41.6824 41.9402 40.4047 41.25 38.9666 41.25H37.031C35.5929 41.25 34.3152 41.9402 33.2583 42.9023C32.0387 44.0133 29.6922 45 26.6 45C23.5077 45 21.1613 44.0133 19.9393 42.9023C18.8824 41.9402 17.6047 41.25 16.1666 41.25H14.231C12.7929 41.25 11.5152 41.9402 10.4583 42.9023C9.23875 44.0133 6.89225 45 3.8 45H1.9C0.85025 45 0 45.8391 0 46.875V50.625C0 51.6609 0.85025 52.5 1.9 52.5H3.8C8.38612 52.5 12.4355 51.0715 15.2 48.7687C17.9645 51.0727 22.0139 52.5 26.6 52.5C31.1861 52.5 35.2355 51.0715 38 48.7687C40.7645 51.0727 44.8139 52.5 49.4 52.5C53.9861 52.5 58.0355 51.0715 60.8 48.7687C63.5645 51.0727 67.6139 52.5 72.2 52.5H74.1C75.1497 52.5 76 51.6609 76 50.625V46.875C76 45.8391 75.1497 45 74.1 45ZM26.6 41.25V30H49.4V41.25C51.6705 41.25 53.0646 40.5281 53.4838 40.1461C54.5728 39.1547 55.7638 38.4656 57 38.0285V11.25C57 9.18281 58.7052 7.5 60.8 7.5C62.8947 7.5 64.6 9.18281 64.6 11.25V13.125C64.6 14.1609 65.4502 15 66.5 15H70.3C71.3497 15 72.2 14.1609 72.2 13.125V11.25C72.2 5.04609 67.0866 0 60.8 0C54.5134 0 49.4 5.04609 49.4 11.25V22.5H26.6V11.25C26.6 9.18281 28.3053 7.5 30.4 7.5C32.4948 7.5 34.2 9.18281 34.2 11.25V13.125C34.2 14.1609 35.0503 15 36.1 15H39.9C40.9497 15 41.8 14.1609 41.8 13.125V11.25C41.8 5.04609 36.6866 0 30.4 0C24.1134 0 19 5.04609 19 11.25V38.0273C20.2362 38.4645 21.4272 39.1547 22.5162 40.1449C22.9354 40.5281 24.3295 41.25 26.6 41.25Z" fill="url(#paint0_linear_47_79)"/>
<defs>
<linearGradient id="paint0_linear_47_79" x1="38" y1="0" x2="38" y2="52.5" gradientUnits="userSpaceOnUse">
<stop stop-color="#5FC9F3"/>
<stop offset="1" stop-color="#55ABF5"/>
</linearGradient>
</defs>
</svg>
