<svg width="29" height="28" viewBox="0 0 29 28" fill="none" xmlns="http://www.w3.org/2000/svg">
<path d="M14.7083 9.57384C12.1696 9.57384 10.0979 11.5627 10.0979 13.9998C10.0979 16.4369 12.1696 18.4258 14.7083 18.4258C17.247 18.4258 19.3187 16.4369 19.3187 13.9998C19.3187 11.5627 17.247 9.57384 14.7083 9.57384ZM28.536 13.9998C28.536 12.167 28.5533 10.3508 28.4461 8.5213C28.3389 6.3963 27.8339 4.51036 26.2153 2.95646C24.5932 1.39923 22.6321 0.917784 20.4185 0.814855C18.5094 0.711925 16.6175 0.728527 14.7118 0.728527C12.8026 0.728527 10.9107 0.711925 9.00498 0.814855C6.79143 0.917784 4.82692 1.40255 3.20826 2.95646C1.58615 4.51368 1.08465 6.3963 0.977428 8.5213C0.87021 10.3541 0.887503 12.1703 0.887503 13.9998C0.887503 15.8293 0.87021 17.6488 0.977428 19.4783C1.08465 21.6033 1.58961 23.4893 3.20826 25.0432C4.83037 26.6004 6.79143 27.0818 9.00498 27.1848C10.9142 27.2877 12.806 27.2711 14.7118 27.2711C16.6209 27.2711 18.5128 27.2877 20.4185 27.1848C22.6321 27.0818 24.5966 26.5971 26.2153 25.0432C27.8374 23.4859 28.3389 21.6033 28.4461 19.4783C28.5568 17.6488 28.536 15.8326 28.536 13.9998ZM14.7083 20.8098C10.7827 20.8098 7.61459 17.7684 7.61459 13.9998C7.61459 10.2313 10.7827 7.18985 14.7083 7.18985C18.6339 7.18985 21.802 10.2313 21.802 13.9998C21.802 17.7684 18.6339 20.8098 14.7083 20.8098ZM22.0925 8.50138C21.176 8.50138 20.4358 7.79083 20.4358 6.91095C20.4358 6.03106 21.176 5.32052 22.0925 5.32052C23.0091 5.32052 23.7492 6.03106 23.7492 6.91095C23.7495 7.11988 23.7068 7.32681 23.6237 7.51989C23.5405 7.71297 23.4185 7.8884 23.2646 8.03614C23.1107 8.18387 22.928 8.30101 22.7269 8.38085C22.5257 8.46068 22.3102 8.50164 22.0925 8.50138Z" fill="white"/>
</svg>
