<svg width="1440" height="100" viewBox="0 0 1440 100" fill="none" xmlns="http://www.w3.org/2000/svg">
<path fill-rule="evenodd" clip-rule="evenodd" d="M-3.98882e-07 2.28134L7 18.6096C15 34.9379 29 67.3433 44 80.1547C58 92.715 73 85.43 87 78.3963C102 71.1114 116 63.8265 131 51.2662C145 38.4548 160 20.3681 175 27.653C189 34.938 204 67.3433 218 81.9132C233 96.4831 247 92.715 262 78.3963C276 63.8265 291 38.4548 305 34.938C320 31.1699 335 49.2566 349 54.7831C364 60.3096 378 53.0247 393 53.0247C407 53.0247 422 60.3096 436 51.2663C451 42.2229 465 16.8513 480 22.1266C495 27.6531 509 63.8265 524 67.3434C538 71.1115 553 42.2229 567 40.2133C582 38.4549 596 63.8265 611 78.3964C625 92.7151 640 96.4831 655 87.4398C669 78.3964 684 56.5416 698 47.4983C713 38.4549 727 42.223 742 47.4983C756 53.0248 771 60.3097 785 63.8266C800 67.3434 815 67.3434 829 58.3001C844 49.2567 858 31.17 873 25.8947C887 20.3682 902 27.6531 916 31.17C931 34.9381 945 34.9381 960 38.4549C975 42.223 989 49.2567 1004 58.3001C1018 67.3435 1033 78.3965 1047 67.3435C1062 56.5417 1076 24.1363 1091 9.56646C1105 -5.0034 1120 -1.23533 1135 9.56647C1149 20.3683 1164 38.455 1178 36.6966C1193 34.9381 1207 13.0833 1222 15.093C1236 16.8514 1251 42.2231 1265 56.5417C1280 71.1116 1295 74.6285 1309 76.3869C1324 78.3965 1338 78.3965 1353 65.5851C1367 53.0249 1382 27.6532 1396 24.1364C1411 20.3683 1425 38.455 1433 47.4984L1440 56.5418L1440 100L1433 100C1425 100 1411 100 1396 100C1382 100 1367 100 1353 100C1338 100 1324 100 1309 100C1295 100 1280 100 1265 100C1251 100 1236 100 1222 100C1207 100 1193 100 1178 100C1164 100 1149 100 1135 100C1120 100 1105 100 1091 100C1076 100 1062 100 1047 100C1033 100 1018 100 1004 100C989 100 975 100 960 100C945 100 931 100 916 100C902 100 887 100 873 100C858 100 844 100 829 100C815 100 800 100 785 100C771 100 756 100 742 100C727 100 713 100 698 100C684 100 669 100 655 100C640 100 625 100 611 100C596 100 582 100 567 100C553 100 538 100 524 100C509 100 495 100 480 100C465 100 451 100 436 100C422 100 407 99.9999 393 99.9999C378 99.9999 364 99.9999 349 99.9999C335 99.9999 320 99.9999 305 99.9999C291 99.9999 276 99.9999 262 99.9999C247 99.9999 233 99.9999 218 99.9999C204 99.9999 189 99.9999 175 99.9999C160 99.9999 145 99.9999 131 99.9999C116 99.9999 102 99.9999 87 99.9999C73 99.9999 58 99.9999 44 99.9999C29 99.9999 15 99.9999 6.99998 99.9999L-1.74845e-05 99.9999L-3.98882e-07 2.28134Z" fill="#1E549F"/>
</svg>
