<svg width="1440" height="88" viewBox="0 0 1440 88" fill="none" xmlns="http://www.w3.org/2000/svg">
<path fill-rule="evenodd" clip-rule="evenodd" d="M-3.51504e-07 2.00758L7.00972 16.3765C15.0208 30.7454 29.0403 59.2621 44.0611 70.5361C58.0805 81.5891 73.1014 75.1784 87.1208 68.9887C102.142 62.578 116.161 56.1673 131.182 45.1143C145.201 33.8402 160.222 17.9239 175.243 24.3347C189.262 30.7454 204.283 59.2621 218.303 72.0836C233.324 84.9051 247.343 81.5892 262.364 68.9888C276.383 56.1673 291.404 33.8402 305.424 30.7454C320.444 27.4295 335.465 43.3458 349.485 48.2092C364.506 53.0725 378.525 46.6617 393.546 46.6617C407.565 46.6617 422.586 53.0725 436.606 45.1143C451.626 37.1562 465.646 14.8291 480.667 19.4714C495.687 24.3347 509.707 56.1673 524.728 59.2622C538.747 62.5781 553.768 37.1562 567.788 35.3877C582.808 33.8403 596.828 56.1674 611.849 68.9888C625.868 81.5892 640.889 84.9051 655.91 76.947C669.929 68.9888 684.95 49.7566 698.969 41.7985C713.99 33.8403 728.01 37.1562 743.031 41.7985C757.05 46.6618 772.071 53.0725 786.09 56.1674C801.111 59.2622 816.132 59.2622 830.151 51.3041C845.172 43.3459 859.192 27.4296 874.213 22.7874C888.232 17.924 903.253 24.3348 917.272 27.4296C932.293 30.7455 946.312 30.7455 961.333 33.8404C976.354 37.1563 990.374 43.3459 1005.39 51.3041C1019.41 59.2623 1034.43 68.9889 1048.45 59.2623C1063.47 49.7567 1077.49 21.24 1092.52 8.4185C1106.53 -4.40297 1121.56 -1.08707 1136.58 8.41851C1150.6 17.9241 1165.62 33.8404 1179.64 32.293C1194.66 30.7456 1208.68 11.5134 1223.7 13.2818C1237.72 14.8293 1252.74 37.1563 1266.76 49.7567C1281.78 62.5782 1296.8 65.673 1310.82 67.2205C1325.84 68.989 1339.86 68.989 1354.88 57.7149C1368.9 46.6619 1383.92 24.3349 1397.94 21.24C1412.96 17.9241 1426.98 33.8404 1434.99 41.7986L1442 49.7568L1442 88.0001L1434.99 88.0001C1426.98 88.0001 1412.96 88.0001 1397.94 88.0001C1383.92 88.0001 1368.9 88.0001 1354.88 88.0001C1339.86 88.0001 1325.84 88.0001 1310.82 88.0001C1296.8 88.0001 1281.78 88.0001 1266.76 88.0001C1252.74 88.0001 1237.72 88.0001 1223.7 88.0001C1208.68 88.0001 1194.66 88.0001 1179.64 88.0001C1165.62 88.0001 1150.6 88.0001 1136.58 88.0001C1121.56 88.0001 1106.53 88.0001 1092.52 88.0001C1077.49 88.0001 1063.47 88.0001 1048.45 88.0001C1034.43 88.0001 1019.41 88 1005.39 88C990.374 88 976.354 88 961.333 88C946.312 88 932.293 88 917.272 88C903.253 88 888.232 88 874.213 88C859.192 88 845.172 88 830.151 88C816.132 88 801.111 88 786.09 88C772.071 88 757.05 88 743.031 88C728.01 88 713.99 88 698.969 88C684.95 88 669.929 88 655.91 88C640.889 88 625.868 88 611.849 88C596.828 88 582.808 88 567.788 88C553.768 88 538.747 88 524.728 88C509.707 88 495.687 88 480.667 88C465.646 88 451.626 87.9999 436.606 87.9999C422.586 87.9999 407.565 87.9999 393.546 87.9999C378.525 87.9999 364.506 87.9999 349.485 87.9999C335.465 87.9999 320.444 87.9999 305.424 87.9999C291.404 87.9999 276.383 87.9999 262.364 87.9999C247.343 87.9999 233.324 87.9999 218.303 87.9999C204.283 87.9999 189.262 87.9999 175.243 87.9999C160.222 87.9999 145.201 87.9999 131.182 87.9999C116.161 87.9999 102.142 87.9999 87.1208 87.9999C73.1014 87.9999 58.0805 87.9999 44.0611 87.9999C29.0403 87.9999 15.0208 87.9999 7.00971 87.9999L-1.54078e-05 87.9999L-3.51504e-07 2.00758Z" fill="url(#paint0_linear_15_196)"/>
<defs>
<linearGradient id="paint0_linear_15_196" x1="721" y1="88" x2="730.5" y2="-267" gradientUnits="userSpaceOnUse">
<stop stop-color="#5FC9F3"/>
<stop offset="1" stop-color="#55ABF5"/>
</linearGradient>
</defs>
</svg>
