<svg width="18" height="18" viewBox="0 0 18 18" fill="none" xmlns="http://www.w3.org/2000/svg">
<path d="M16.9858 10.4309C17.0738 9.94746 17.1211 9.45332 17.1211 8.95918C17.1211 7.86348 16.9063 6.8 16.483 5.80098C16.0748 4.83418 15.4883 3.96621 14.7428 3.2207C14.0035 2.47954 13.1272 1.88922 12.1625 1.48262C11.1613 1.05938 10.1 0.844531 9.00431 0.844531C8.48869 0.844531 7.97091 0.893945 7.46818 0.990625C6.77254 0.622003 5.99744 0.428779 5.21017 0.427734C3.92755 0.427734 2.72013 0.92832 1.81349 1.83496C1.36611 2.28005 1.01139 2.80941 0.769844 3.39243C0.528302 3.97545 0.404727 4.60057 0.406264 5.23164C0.406264 6.04805 0.616811 6.85156 1.00998 7.56055C0.930483 8.02031 0.887514 8.49082 0.887514 8.95918C0.887514 10.0549 1.10236 11.1184 1.5256 12.1174C1.9338 13.0842 2.51818 13.9521 3.26369 14.6977C4.00919 15.4432 4.87716 16.0275 5.84396 16.4357C6.84513 16.859 7.90646 17.0738 9.00216 17.0738C9.47912 17.0738 9.95607 17.0309 10.4244 16.9471C11.1442 17.3531 11.9563 17.5701 12.7877 17.5701C14.0703 17.5701 15.2777 17.0717 16.1844 16.1629C17.0932 15.2563 17.5916 14.0488 17.5916 12.7662C17.5938 11.9498 17.3832 11.1441 16.9858 10.4309ZM9.03654 13.9307C6.15334 13.9307 4.86427 12.5127 4.86427 11.4514C4.86427 10.9057 5.26603 10.5254 5.82033 10.5254C7.05353 10.5254 6.73556 12.2979 9.03654 12.2979C10.216 12.2979 10.867 11.6576 10.867 11.0023C10.867 10.6092 10.6736 10.1709 9.89591 9.97969L7.33068 9.33945C5.26603 8.82168 4.89005 7.70449 4.89005 6.65605C4.89005 4.47754 6.94181 3.65898 8.86896 3.65898C10.6436 3.65898 12.7361 4.64082 12.7361 5.94707C12.7361 6.50781 12.2506 6.83223 11.6963 6.83223C10.6436 6.83223 10.8369 5.37559 8.71642 5.37559C7.66369 5.37559 7.08146 5.85254 7.08146 6.53359C7.08146 7.21465 7.91291 7.43164 8.63478 7.59707L10.534 8.01816C12.6137 8.48223 13.1401 9.69609 13.1401 10.8391C13.1401 12.6072 11.7801 13.9307 9.03654 13.9307Z" fill="url(#paint0_linear_46_126)"/>
<defs>
<linearGradient id="paint0_linear_46_126" x1="8.99894" y1="0.427734" x2="8.99894" y2="17.5701" gradientUnits="userSpaceOnUse">
<stop stop-color="#5FC9F3"/>
<stop offset="1" stop-color="#55ABF5"/>
</linearGradient>
</defs>
</svg>
